# xmcd
#
# Track frame offsets: 
#        150
#        18077
#        32738
#        51650
#        69813
#        96406
#        113681
#        141259
#        165067
#        181697
#        202172
#        218492
#        243779
#
# Disc length: 3512 seconds
#
# Revision: 0
# Processed by: cddbd v1.5.2PL0 Copyright (c) Steve Scherf et al.
# Submitted via: ExactAudioCopyFreeDBPlugin 1.0
#
DISCID=a50db60d
DTITLE=Record Company, The - All Of This Life
DYEAR=2018
DGENRE=2010's Blues
TTITLE0=Life To Fix
TTITLE1=I'm Getting Better (And I'm Feeling It Right Now)
TTITLE2=Goodbye To The Hard Life
TTITLE3=Make It Happen
TTITLE4=You And Me Now
TTITLE5=Coming Home
TTITLE6=The Movie Song
TTITLE7=Night Games
TTITLE8=Roll Bones
TTITLE9=I'm Changing
TTITLE10=Baby I'm Broken
TTITLE11=I'm Getting Better (And I'm Feeling It Right Now) [Late Night
TTITLE11=Mix]
TTITLE12=Night Games [Freight Train Mix]
EXTD=
EXTT0=
EXTT1=
EXTT2=
EXTT3=
EXTT4=
EXTT5=
EXTT6=
EXTT7=
EXTT8=
EXTT9=
EXTT10=
EXTT11=
EXTT12=
PLAYORDER=
